<mxfile host="app.diagrams.net" modified="2023-10-17T08:56:06.104Z" agent="Mozilla/5.0 (Macintosh; Intel Mac OS X 10_15_7) AppleWebKit/537.36 (KHTML, like Gecko) Chrome/115.0.0.0 Safari/537.36" version="21.7.2" etag="2eHqgVTZaStWiIJQ2wnW" type="github">
  <diagram name="페이지-1" id="OOgULnX9zVM0vHofDHmD">
    <mxGraphModel>
      <root>
        <mxCell id="0" />
        <mxCell id="1" parent="0" />
      </root>
    </mxGraphModel>
  </diagram>
</mxfile>
